<svg xmlns:xlink="http://www.w3.org/1999/xlink" style="shape-rendering:geometricPrecision; text-rendering:geometricPrecision; image-rendering:optimizeQuality; fill-rule:evenodd; clip-rule:evenodd" height="400px" width="2000px" version="1.1" xmlns="http://www.w3.org/2000/svg">
<g><path d="M -0.5,-0.5 C 666.167,-0.5 1332.83,-0.5 1999.5,-0.5C 1999.5,132.833 1999.5,266.167 1999.5,399.5C 1332.83,399.5 666.167,399.5 -0.5,399.5C -0.5,266.167 -0.5,132.833 -0.5,-0.5 Z" fill="#000000" style="opacity:1"></path></g>
<g><path d="M 191.5,39.5 C 194.627,40.5808 197.96,41.2474 201.5,41.5C 240.327,49.7415 271.994,69.4082 296.5,100.5C 211.503,101.5 126.503,101.833 41.5,101.5C 65.8659,70.1393 97.5326,50.1393 136.5,41.5C 139.152,41.5905 141.485,40.9238 143.5,39.5C 159.503,38.1845 175.503,38.1845 191.5,39.5 Z" fill="#31dd83" style="opacity:1"></path></g>
<g><path d="M 191.5,39.5 C 195.16,39.1588 198.493,39.8255 201.5,41.5C 197.96,41.2474 194.627,40.5808 191.5,39.5 Z" fill="#196f42" style="opacity:1"></path></g>
<g><path d="M 143.5,39.5 C 141.485,40.9238 139.152,41.5905 136.5,41.5C 138.515,40.0762 140.848,39.4095 143.5,39.5 Z" fill="#1b7a49" style="opacity:1"></path></g>
<g><path d="M 1859.5,70.5 C 1870.83,70.5 1882.17,70.5 1893.5,70.5C 1893.5,72.8333 1893.5,75.1667 1893.5,77.5C 1889.5,77.5 1885.5,77.5 1881.5,77.5C 1881.5,89.8333 1881.5,102.167 1881.5,114.5C 1878.5,114.5 1875.5,114.5 1872.5,114.5C 1872.5,102.167 1872.5,89.8333 1872.5,77.5C 1868.17,77.5 1863.83,77.5 1859.5,77.5C 1859.5,75.1667 1859.5,72.8333 1859.5,70.5 Z" fill="#30d880" style="opacity:1"></path></g>
<g><path d="M 1938.5,114.5 C 1938.83,104.81 1938.5,95.1437 1937.5,85.5C 1936.89,85.6236 1936.56,85.9569 1936.5,86.5C 1933.1,95.6996 1930.1,105.033 1927.5,114.5C 1924.75,114.813 1922.09,114.48 1919.5,113.5C 1916.49,104.81 1913.49,96.1432 1910.5,87.5C 1910.22,86.7109 1909.72,86.0442 1909,85.5C 1908.5,95.1609 1908.33,104.828 1908.5,114.5C 1905.83,114.5 1903.17,114.5 1900.5,114.5C 1900.5,99.8333 1900.5,85.1667 1900.5,70.5C 1904.55,70.1758 1908.55,70.5091 1912.5,71.5C 1916.37,81.7631 1920.03,92.0964 1923.5,102.5C 1927.36,92.2519 1931.03,81.9186 1934.5,71.5C 1938.45,70.5091 1942.45,70.1758 1946.5,70.5C 1946.5,85.1667 1946.5,99.8333 1946.5,114.5C 1943.83,114.5 1941.17,114.5 1938.5,114.5 Z" fill="#30d67f" style="opacity:1"></path></g>
<g><path d="M 1910.5,87.5 C 1909.83,96.5 1909.17,105.5 1908.5,114.5C 1908.33,104.828 1908.5,95.1609 1909,85.5C 1909.72,86.0442 1910.22,86.7109 1910.5,87.5 Z" fill="#0b321d" style="opacity:1"></path></g>
<g><path d="M 1936.5,86.5 C 1936.56,85.9569 1936.89,85.6236 1937.5,85.5C 1938.5,95.1437 1938.83,104.81 1938.5,114.5C 1937.83,105.167 1937.17,95.8333 1936.5,86.5 Z" fill="#1e8951" style="opacity:1"></path></g>
<g><path d="M 41.5,101.5 C 61.7173,142.935 82.2173,184.268 103,225.5C 104.136,228.096 104.969,230.763 105.5,233.5C 76.8498,240.329 49.6831,250.996 24,265.5C 16.7522,251.417 12.0856,236.417 10,220.5C 4.3348,176.363 14.8348,136.696 41.5,101.5 Z" fill="#31dc83" style="opacity:1"></path></g>
<g><path d="M 296.5,102.5 C 299.422,104.594 301.922,107.261 304,110.5C 327.702,147.703 335.369,188.036 327,231.5C 324.404,241.288 321.404,250.955 318,260.5C 317.313,262.555 316.146,264.221 314.5,265.5C 288.497,251.164 261.164,240.164 232.5,232.5C 253.844,189.145 275.178,145.811 296.5,102.5 Z" fill="#31dc83" style="opacity:1"></path></g>
<g><path d="M 1079.5,113.5 C 1089.95,112.642 1098.45,116.309 1105,124.5C 1125.28,173.386 1145.28,222.386 1165,271.5C 1165.9,274.025 1165.4,276.192 1163.5,278C 1154.5,278.667 1145.5,278.667 1136.5,278C 1136,277.5 1135.5,277 1135,276.5C 1118.45,235.012 1101.62,193.679 1084.5,152.5C 1075.57,173.356 1066.91,194.356 1058.5,215.5C 1068.25,216.05 1077.91,216.883 1087.5,218C 1090.33,224.483 1093.16,230.983 1096,237.5C 1097.18,241.26 1096.01,244.093 1092.5,246C 1077.16,246.167 1061.82,246.667 1046.5,247.5C 1042.72,256.054 1039.22,264.72 1036,273.5C 1035.22,275.286 1034.05,276.786 1032.5,278C 1023.5,278.667 1014.5,278.667 1005.5,278C 1003.13,275.062 1002.96,271.896 1005,268.5C 1023,223.833 1041,179.167 1059,134.5C 1061.16,129.508 1063.83,124.841 1067,120.5C 1071.02,117.745 1075.19,115.411 1079.5,113.5 Z" fill="#31db82" style="opacity:1"></path></g>
<g><path d="M 375.5,115.5 C 420.501,115.333 465.501,115.5 510.5,116C 512.049,117.214 513.215,118.714 514,120.5C 514.667,127.167 514.667,133.833 514,140.5C 513.215,142.286 512.049,143.786 510.5,145C 492.836,145.5 475.17,145.667 457.5,145.5C 457.667,188.835 457.5,232.168 457,275.5C 456.5,276.667 455.667,277.5 454.5,278C 446.833,278.667 439.167,278.667 431.5,278C 430.667,277.167 429.833,276.333 429,275.5C 428.5,232.168 428.333,188.835 428.5,145.5C 410.83,145.667 393.164,145.5 375.5,145C 373.951,143.786 372.785,142.286 372,140.5C 371.333,133.833 371.333,127.167 372,120.5C 372.997,118.677 374.164,117.01 375.5,115.5 Z" fill="#31da81" style="opacity:1"></path></g>
<g><path d="M 538.5,115.5 C 577.835,115.333 617.168,115.5 656.5,116C 657.333,116.833 658.167,117.667 659,118.5C 659.667,126.5 659.667,134.5 659,142.5C 658.5,143 658,143.5 657.5,144C 617.5,144.667 577.5,144.667 537.5,144C 536.874,143.25 536.374,142.416 536,141.5C 535.333,133.833 535.333,126.167 536,118.5C 537.045,117.627 537.878,116.627 538.5,115.5 Z" fill="#31dc83" style="opacity:1"></path></g>
<g><path d="M 685.5,115.5 C 718.502,115.333 751.502,115.5 784.5,116C 800.737,118.235 810.57,127.402 814,143.5C 816.729,160.11 815.729,176.444 811,192.5C 805.92,203.303 797.42,209.636 785.5,211.5C 797,231.167 808.5,250.833 820,270.5C 820.944,273.347 820.444,275.847 818.5,278C 809.167,278.667 799.833,278.667 790.5,278C 777.581,256.163 764.914,234.163 752.5,212C 738.504,211.5 724.504,211.333 710.5,211.5C 710.667,232.836 710.5,254.169 710,275.5C 709.692,276.308 709.192,276.975 708.5,277.5C 700.549,278.635 692.549,278.802 684.5,278C 683.299,277.097 682.465,275.931 682,274.5C 681.175,244.458 681.342,214.458 682.5,184.5C 683.025,183.808 683.692,183.308 684.5,183C 715.5,182.667 746.5,182.333 777.5,182C 781.333,180.833 783.833,178.333 785,174.5C 786.496,167.901 786.829,161.234 786,154.5C 784.595,150.152 781.762,147.319 777.5,146C 746.833,145.667 716.167,145.333 685.5,145C 683.667,144.5 682.5,143.333 682,141.5C 681.333,134.167 681.333,126.833 682,119.5C 682.69,117.65 683.856,116.316 685.5,115.5 Z" fill="#31db82" style="opacity:1"></path></g>
<g><path d="M 846.5,115.5 C 879.502,115.333 912.502,115.5 945.5,116C 961.737,118.235 971.57,127.402 975,143.5C 977.729,160.11 976.729,176.444 972,192.5C 966.92,203.303 958.42,209.636 946.5,211.5C 958,231.167 969.5,250.833 981,270.5C 981.944,273.347 981.444,275.847 979.5,278C 970.167,278.667 960.833,278.667 951.5,278C 938.581,256.163 925.914,234.163 913.5,212C 899.504,211.5 885.504,211.333 871.5,211.5C 871.667,232.836 871.5,254.169 871,275.5C 870.692,276.308 870.192,276.975 869.5,277.5C 861.549,278.635 853.549,278.802 845.5,278C 844.299,277.097 843.465,275.931 843,274.5C 842.175,244.458 842.342,214.458 843.5,184.5C 844.025,183.808 844.692,183.308 845.5,183C 876.5,182.667 907.5,182.333 938.5,182C 942.333,180.833 944.833,178.333 946,174.5C 947.496,167.901 947.829,161.234 947,154.5C 945.595,150.152 942.762,147.319 938.5,146C 907.833,145.667 877.167,145.333 846.5,145C 844.667,144.5 843.5,143.333 843,141.5C 842.333,134.167 842.333,126.833 843,119.5C 843.69,117.65 844.856,116.316 846.5,115.5 Z" fill="#31db82" style="opacity:1"></path></g>
<g><path d="M 1228.5,115.5 C 1255.5,115.333 1282.5,115.5 1309.5,116C 1310.67,117.167 1311.83,118.333 1313,119.5C 1313.9,127.579 1313.57,135.579 1312,143.5C 1311.25,144.126 1310.42,144.626 1309.5,145C 1282.17,145.333 1254.83,145.667 1227.5,146C 1221.45,148.901 1217.95,153.735 1217,160.5C 1216.33,183.5 1216.33,206.5 1217,229.5C 1216.43,239.206 1220.6,245.706 1229.5,249C 1256.5,249.333 1283.5,249.667 1310.5,250C 1311.33,250.833 1312.17,251.667 1313,252.5C 1313.67,259.833 1313.67,267.167 1313,274.5C 1312.53,275.931 1311.7,277.097 1310.5,278C 1281.5,278.667 1252.5,278.667 1223.5,278C 1205.23,275.061 1194.06,264.561 1190,246.5C 1189.33,242.5 1188.67,238.5 1188,234.5C 1187.05,207.131 1187.39,179.798 1189,152.5C 1193.09,130.242 1206.25,117.909 1228.5,115.5 Z" fill="#31db82" style="opacity:1"></path></g>
<g><path d="M 1338.5,115.5 C 1345.84,115.334 1353.17,115.5 1360.5,116C 1362.33,116.5 1363.5,117.667 1364,119.5C 1364.33,157.167 1364.67,194.833 1365,232.5C 1365.48,240.959 1369.65,246.459 1377.5,249C 1402.17,249.333 1426.83,249.667 1451.5,250C 1452.33,250.833 1453.17,251.667 1454,252.5C 1454.67,259.833 1454.67,267.167 1454,274.5C 1453.53,275.931 1452.7,277.097 1451.5,278C 1424.5,278.667 1397.5,278.667 1370.5,278C 1352.77,274.606 1341.94,264.106 1338,246.5C 1336.85,239.524 1335.85,232.524 1335,225.5C 1334.33,190.5 1334.33,155.5 1335,120.5C 1336,118.677 1337.16,117.01 1338.5,115.5 Z" fill="#31da82" style="opacity:1"></path></g>
<g><path d="M 1479.5,115.5 C 1486.84,115.334 1494.17,115.5 1501.5,116C 1502.67,117.167 1503.83,118.333 1505,119.5C 1505.67,171.167 1505.67,222.833 1505,274.5C 1504.53,275.931 1503.7,277.097 1502.5,278C 1494.5,278.667 1486.5,278.667 1478.5,278C 1477.3,277.097 1476.47,275.931 1476,274.5C 1475.33,223.167 1475.33,171.833 1476,120.5C 1477,118.677 1478.16,117.01 1479.5,115.5 Z" fill="#30d780" style="opacity:1"></path></g>
<g><path d="M 1680.5,274.5 C 1680.83,233.828 1680.5,193.161 1679.5,152.5C 1678.89,152.624 1678.56,152.957 1678.5,153.5C 1665.35,185.808 1652.18,218.141 1639,250.5C 1633.84,258.411 1626.51,261.744 1617,260.5C 1607.65,261.946 1600.65,258.613 1596,250.5C 1582.82,218.141 1569.65,185.808 1556.5,153.5C 1556.44,152.957 1556.11,152.624 1555.5,152.5C 1554.5,193.161 1554.17,233.828 1554.5,274.5C 1554.49,276.017 1553.82,277.184 1552.5,278C 1544.83,278.667 1537.17,278.667 1529.5,278C 1528.3,277.097 1527.47,275.931 1527,274.5C 1526.33,226.833 1526.33,179.167 1527,131.5C 1527.51,123.276 1531.68,118.11 1539.5,116C 1548.5,115.333 1557.5,115.333 1566.5,116C 1573.54,117.889 1578.04,122.389 1580,129.5C 1592,160.167 1604,190.833 1616,221.5C 1617.01,222.337 1618.18,222.67 1619.5,222.5C 1632.36,189.084 1645.53,155.75 1659,122.5C 1661.49,118.675 1664.99,116.508 1669.5,116C 1678.17,115.333 1686.83,115.333 1695.5,116C 1703.39,118.571 1707.56,124.071 1708,132.5C 1708.67,179.833 1708.67,227.167 1708,274.5C 1707.5,276.333 1706.33,277.5 1704.5,278C 1697.17,278.667 1689.83,278.667 1682.5,278C 1681.18,277.184 1680.51,276.017 1680.5,274.5 Z" fill="#31db82" style="opacity:1"></path></g>
<g><path d="M 1732.5,115.5 C 1771.83,115.333 1811.17,115.5 1850.5,116C 1852,116.833 1853.17,118 1854,119.5C 1854.67,126.5 1854.67,133.5 1854,140.5C 1853.53,141.931 1852.7,143.097 1851.5,144C 1811.83,144.667 1772.17,144.667 1732.5,144C 1731.3,143.097 1730.47,141.931 1730,140.5C 1729.33,133.5 1729.33,126.5 1730,119.5C 1730.66,118.016 1731.5,116.683 1732.5,115.5 Z" fill="#31dc82" style="opacity:1"></path></g>
<g><path d="M 89.5,132.5 C 142.665,131.335 195.998,131.168 249.5,132C 233.539,163.422 217.705,194.922 202,226.5C 198.491,227.766 194.991,227.599 191.5,226C 173.939,224.982 156.439,225.482 139,227.5C 138.167,227.167 137.333,226.833 136.5,226.5C 120.787,195.075 105.121,163.741 89.5,132.5 Z" fill="#31dd83" style="opacity:1"></path></g>
<g><path d="M 1556.5,153.5 C 1555.83,193.833 1555.17,234.167 1554.5,274.5C 1554.17,233.828 1554.5,193.161 1555.5,152.5C 1556.11,152.624 1556.44,152.957 1556.5,153.5 Z" fill="#176a3e" style="opacity:1"></path></g>
<g><path d="M 1678.5,153.5 C 1678.56,152.957 1678.89,152.624 1679.5,152.5C 1680.5,193.161 1680.83,233.828 1680.5,274.5C 1679.83,234.167 1679.17,193.833 1678.5,153.5 Z" fill="#219759" style="opacity:1"></path></g>
<g><path d="M 550.5,181.5 C 585.502,181.333 620.502,181.5 655.5,182C 656.333,182.833 657.167,183.667 658,184.5C 658.667,192.5 658.667,200.5 658,208.5C 657.097,209.701 655.931,210.535 654.5,211C 624.502,211.5 594.502,211.667 564.5,211.5C 564.334,217.509 564.501,223.509 565,229.5C 566.282,235.113 569.449,239.28 574.5,242C 602.118,243.299 629.785,243.966 657.5,244C 658,244.5 658.5,245 659,245.5C 659.667,255.5 659.667,265.5 659,275.5C 658.167,276.333 657.333,277.167 656.5,278C 628.833,278.667 601.167,278.667 573.5,278C 554.35,275.184 542.517,264.351 538,245.5C 535.669,228.569 535.002,211.569 536,194.5C 538.584,187.487 543.417,183.154 550.5,181.5 Z" fill="#31da81" style="opacity:1"></path></g>
<g><path d="M 1744.5,181.5 C 1779.5,181.333 1814.5,181.5 1849.5,182C 1850.67,183.167 1851.83,184.333 1853,185.5C 1853.67,192.5 1853.67,199.5 1853,206.5C 1852.22,208.286 1851.05,209.786 1849.5,211C 1819.5,211.5 1789.5,211.667 1759.5,211.5C 1759.33,217.842 1759.5,224.175 1760,230.5C 1761.5,237.333 1765.67,241.5 1772.5,243C 1798.83,243.333 1825.17,243.667 1851.5,244C 1852,244.5 1852.5,245 1853,245.5C 1854.61,254.732 1854.94,264.065 1854,273.5C 1853.43,275.492 1852.26,276.992 1850.5,278C 1822.83,278.667 1795.17,278.667 1767.5,278C 1747.93,275.101 1736.1,263.935 1732,244.5C 1729.65,227.909 1728.98,211.242 1730,194.5C 1733,187.948 1737.83,183.614 1744.5,181.5 Z" fill="#30d981" style="opacity:1"></path></g>
<g><path d="M 152.5,250.5 C 164.88,250.13 177.214,250.63 189.5,252C 182.794,265.245 175.961,278.412 169,291.5C 162.5,278.5 156,265.5 149.5,252.5C 150.602,251.824 151.602,251.158 152.5,250.5 Z" fill="#30d880" style="opacity:1"></path></g>
<g><path d="M 167.5,356.5 C 163.285,358.436 158.619,359.103 153.5,358.5C 103.471,352.661 64.1374,329.161 35.5,288C 60.779,273.573 87.6124,263.073 116,256.5C 116.833,256.833 117.667,257.167 118.5,257.5C 135.116,290.399 151.449,323.399 167.5,356.5 Z" fill="#31dc83" style="opacity:1"></path></g>
<g><path d="M 181.5,358.5 C 177.629,358.815 173.962,358.482 170.5,357.5C 186.717,324.065 203.217,290.732 220,257.5C 220.725,256.941 221.558,256.608 222.5,256.5C 250.741,263.289 277.408,273.956 302.5,288.5C 273.263,330.63 232.929,353.964 181.5,358.5 Z" fill="#31dc83" style="opacity:1"></path></g>
<g><path d="M 167.5,356.5 C 168.222,356.918 168.722,357.584 169,358.5C 169.383,357.944 169.883,357.611 170.5,357.5C 173.962,358.482 177.629,358.815 181.5,358.5C 172.167,359.833 162.833,359.833 153.5,358.5C 158.619,359.103 163.285,358.436 167.5,356.5 Z" fill="#24a461" style="opacity:1"></path></g>
</svg>
